<mxfile host="Electron" agent="Mozilla/5.0 (Macintosh; Intel Mac OS X 10_15_7) AppleWebKit/537.36 (KHTML, like Gecko) draw.io/26.0.9 Chrome/128.0.6613.186 Electron/32.2.5 Safari/537.36" version="26.0.9">
  <diagram name="Page-1" id="78otowxAK7AzntrjOwnE">
    <mxGraphModel dx="1578" dy="2732" grid="1" gridSize="10" guides="1" tooltips="1" connect="1" arrows="1" fold="1" page="1" pageScale="1" pageWidth="1169" pageHeight="827" math="0" shadow="0">
      <root>
        <mxCell id="0" />
        <mxCell id="1" parent="0" />
        <mxCell id="IlorlPR1KQmD8dB0BpuV-1" value="" style="shape=flexArrow;endArrow=classic;html=1;rounded=0;fillColor=#f8cecc;strokeColor=#b85450;" edge="1" parent="1" target="IlorlPR1KQmD8dB0BpuV-43">
          <mxGeometry width="50" height="50" relative="1" as="geometry">
            <mxPoint x="475.28999999999996" y="-982.5" as="sourcePoint" />
            <mxPoint x="475" y="-10" as="targetPoint" />
          </mxGeometry>
        </mxCell>
        <mxCell id="IlorlPR1KQmD8dB0BpuV-2" value="" style="shape=flexArrow;endArrow=classic;html=1;rounded=0;fillColor=#f8cecc;strokeColor=#b85450;" edge="1" parent="1" source="IlorlPR1KQmD8dB0BpuV-43">
          <mxGeometry width="50" height="50" relative="1" as="geometry">
            <mxPoint x="475.28999999999996" y="-1052.5" as="sourcePoint" />
            <mxPoint x="475" y="-80" as="targetPoint" />
          </mxGeometry>
        </mxCell>
        <mxCell id="IlorlPR1KQmD8dB0BpuV-3" value="Mask" style="shape=process;whiteSpace=wrap;html=1;backgroundOutline=1;" vertex="1" parent="1">
          <mxGeometry x="416" y="-891" width="120" height="60" as="geometry" />
        </mxCell>
        <mxCell id="IlorlPR1KQmD8dB0BpuV-4" value="Flux, Time, Tranmission" style="shape=process;whiteSpace=wrap;html=1;backgroundOutline=1;" vertex="1" parent="1">
          <mxGeometry x="416" y="-821" width="120" height="60" as="geometry" />
        </mxCell>
        <mxCell id="IlorlPR1KQmD8dB0BpuV-5" value="Background subtraction&lt;div&gt;(match processed)&lt;/div&gt;" style="shape=process;whiteSpace=wrap;html=1;backgroundOutline=1;" vertex="1" parent="1">
          <mxGeometry x="416" y="-680" width="120" height="60" as="geometry" />
        </mxCell>
        <mxCell id="IlorlPR1KQmD8dB0BpuV-6" value="Apply Scalars to arrays" style="shape=process;whiteSpace=wrap;html=1;backgroundOutline=1;" vertex="1" parent="1">
          <mxGeometry x="416" y="-610" width="120" height="60" as="geometry" />
        </mxCell>
        <mxCell id="IlorlPR1KQmD8dB0BpuV-7" style="edgeStyle=orthogonalEdgeStyle;rounded=0;orthogonalLoop=1;jettySize=auto;html=1;exitX=0.5;exitY=1;exitDx=0;exitDy=0;entryX=0.5;entryY=0;entryDx=0;entryDy=0;" edge="1" parent="1" source="IlorlPR1KQmD8dB0BpuV-8" target="IlorlPR1KQmD8dB0BpuV-16">
          <mxGeometry relative="1" as="geometry" />
        </mxCell>
        <mxCell id="IlorlPR1KQmD8dB0BpuV-8" value="Cake remapping" style="shape=process;whiteSpace=wrap;html=1;backgroundOutline=1;" vertex="1" parent="1">
          <mxGeometry x="546" y="-350" width="120" height="60" as="geometry" />
        </mxCell>
        <mxCell id="IlorlPR1KQmD8dB0BpuV-9" value="Write out" style="shape=process;whiteSpace=wrap;html=1;backgroundOutline=1;" vertex="1" parent="1">
          <mxGeometry x="416" y="-280" width="120" height="60" as="geometry" />
        </mxCell>
        <mxCell id="IlorlPR1KQmD8dB0BpuV-10" value="Calculate Qx, Qy, Chi" style="shape=process;whiteSpace=wrap;html=1;backgroundOutline=1;" vertex="1" parent="1">
          <mxGeometry x="416" y="-960" width="120" height="60" as="geometry" />
        </mxCell>
        <mxCell id="IlorlPR1KQmD8dB0BpuV-11" value="DC" style="shape=process;whiteSpace=wrap;html=1;backgroundOutline=1;" vertex="1" parent="1">
          <mxGeometry x="416" y="-751" width="120" height="60" as="geometry" />
        </mxCell>
        <mxCell id="IlorlPR1KQmD8dB0BpuV-12" value="Tiled" style="shape=cylinder3;whiteSpace=wrap;html=1;boundedLbl=1;backgroundOutline=1;size=15;" vertex="1" parent="1">
          <mxGeometry x="666" y="-185" width="90" height="50" as="geometry" />
        </mxCell>
        <mxCell id="IlorlPR1KQmD8dB0BpuV-13" style="edgeStyle=orthogonalEdgeStyle;rounded=0;orthogonalLoop=1;jettySize=auto;html=1;entryX=0.5;entryY=0;entryDx=0;entryDy=0;" edge="1" parent="1" source="IlorlPR1KQmD8dB0BpuV-15" target="IlorlPR1KQmD8dB0BpuV-8">
          <mxGeometry relative="1" as="geometry" />
        </mxCell>
        <mxCell id="IlorlPR1KQmD8dB0BpuV-14" style="edgeStyle=orthogonalEdgeStyle;rounded=0;orthogonalLoop=1;jettySize=auto;html=1;exitX=0.5;exitY=1;exitDx=0;exitDy=0;entryX=0.5;entryY=0;entryDx=0;entryDy=0;" edge="1" parent="1" source="IlorlPR1KQmD8dB0BpuV-15" target="IlorlPR1KQmD8dB0BpuV-18">
          <mxGeometry relative="1" as="geometry" />
        </mxCell>
        <mxCell id="IlorlPR1KQmD8dB0BpuV-15" value="Branch out / copy" style="shape=process;whiteSpace=wrap;html=1;backgroundOutline=1;" vertex="1" parent="1">
          <mxGeometry x="416" y="-540" width="120" height="60" as="geometry" />
        </mxCell>
        <mxCell id="IlorlPR1KQmD8dB0BpuV-16" value="Write out" style="shape=process;whiteSpace=wrap;html=1;backgroundOutline=1;" vertex="1" parent="1">
          <mxGeometry x="546" y="-280" width="120" height="60" as="geometry" />
        </mxCell>
        <mxCell id="IlorlPR1KQmD8dB0BpuV-17" style="edgeStyle=orthogonalEdgeStyle;rounded=0;orthogonalLoop=1;jettySize=auto;html=1;exitX=0.5;exitY=1;exitDx=0;exitDy=0;entryX=0.5;entryY=0;entryDx=0;entryDy=0;" edge="1" parent="1" source="IlorlPR1KQmD8dB0BpuV-18" target="IlorlPR1KQmD8dB0BpuV-9">
          <mxGeometry relative="1" as="geometry" />
        </mxCell>
        <mxCell id="IlorlPR1KQmD8dB0BpuV-18" value="Azimuthal Averaging" style="shape=process;whiteSpace=wrap;html=1;backgroundOutline=1;" vertex="1" parent="1">
          <mxGeometry x="416" y="-350" width="120" height="60" as="geometry" />
        </mxCell>
        <mxCell id="IlorlPR1KQmD8dB0BpuV-19" style="edgeStyle=orthogonalEdgeStyle;rounded=0;orthogonalLoop=1;jettySize=auto;html=1;exitX=0.5;exitY=1;exitDx=0;exitDy=0;entryX=0;entryY=0.5;entryDx=0;entryDy=0;entryPerimeter=0;" edge="1" parent="1" source="IlorlPR1KQmD8dB0BpuV-16" target="IlorlPR1KQmD8dB0BpuV-12">
          <mxGeometry relative="1" as="geometry" />
        </mxCell>
        <mxCell id="IlorlPR1KQmD8dB0BpuV-20" style="edgeStyle=orthogonalEdgeStyle;rounded=0;orthogonalLoop=1;jettySize=auto;html=1;exitX=0.5;exitY=1;exitDx=0;exitDy=0;entryX=0;entryY=0.5;entryDx=0;entryDy=0;entryPerimeter=0;" edge="1" parent="1" source="IlorlPR1KQmD8dB0BpuV-9" target="IlorlPR1KQmD8dB0BpuV-12">
          <mxGeometry relative="1" as="geometry" />
        </mxCell>
        <mxCell id="IlorlPR1KQmD8dB0BpuV-21" style="edgeStyle=orthogonalEdgeStyle;rounded=0;orthogonalLoop=1;jettySize=auto;html=1;exitX=0.5;exitY=1;exitDx=0;exitDy=0;entryX=0.5;entryY=0;entryDx=0;entryDy=0;" edge="1" parent="1" source="IlorlPR1KQmD8dB0BpuV-22" target="IlorlPR1KQmD8dB0BpuV-27">
          <mxGeometry relative="1" as="geometry" />
        </mxCell>
        <mxCell id="IlorlPR1KQmD8dB0BpuV-22" value="Background subtraction&lt;div&gt;(combine branches)&lt;/div&gt;" style="shape=process;whiteSpace=wrap;html=1;backgroundOutline=1;" vertex="1" parent="1">
          <mxGeometry x="286" y="-420" width="120" height="60" as="geometry" />
        </mxCell>
        <mxCell id="IlorlPR1KQmD8dB0BpuV-23" style="edgeStyle=orthogonalEdgeStyle;rounded=0;orthogonalLoop=1;jettySize=auto;html=1;exitX=0;exitY=0.5;exitDx=0;exitDy=0;entryX=0.5;entryY=0;entryDx=0;entryDy=0;" edge="1" parent="1" source="IlorlPR1KQmD8dB0BpuV-24" target="IlorlPR1KQmD8dB0BpuV-22">
          <mxGeometry relative="1" as="geometry" />
        </mxCell>
        <mxCell id="IlorlPR1KQmD8dB0BpuV-24" value="Branch out / copy" style="shape=process;whiteSpace=wrap;html=1;backgroundOutline=1;" vertex="1" parent="1">
          <mxGeometry x="416" y="-470" width="120" height="60" as="geometry" />
        </mxCell>
        <mxCell id="IlorlPR1KQmD8dB0BpuV-25" value="Write out" style="shape=process;whiteSpace=wrap;html=1;backgroundOutline=1;" vertex="1" parent="1">
          <mxGeometry x="286" y="-280" width="120" height="60" as="geometry" />
        </mxCell>
        <mxCell id="IlorlPR1KQmD8dB0BpuV-26" style="edgeStyle=orthogonalEdgeStyle;rounded=0;orthogonalLoop=1;jettySize=auto;html=1;exitX=0.5;exitY=1;exitDx=0;exitDy=0;entryX=0.5;entryY=0;entryDx=0;entryDy=0;" edge="1" parent="1" source="IlorlPR1KQmD8dB0BpuV-27" target="IlorlPR1KQmD8dB0BpuV-25">
          <mxGeometry relative="1" as="geometry" />
        </mxCell>
        <mxCell id="IlorlPR1KQmD8dB0BpuV-27" value="Azimuthal Averaging" style="shape=process;whiteSpace=wrap;html=1;backgroundOutline=1;" vertex="1" parent="1">
          <mxGeometry x="286" y="-350" width="120" height="60" as="geometry" />
        </mxCell>
        <mxCell id="IlorlPR1KQmD8dB0BpuV-28" style="edgeStyle=orthogonalEdgeStyle;rounded=0;orthogonalLoop=1;jettySize=auto;html=1;exitX=0.5;exitY=1;exitDx=0;exitDy=0;entryX=0;entryY=0.5;entryDx=0;entryDy=0;entryPerimeter=0;" edge="1" parent="1" source="IlorlPR1KQmD8dB0BpuV-25" target="IlorlPR1KQmD8dB0BpuV-12">
          <mxGeometry relative="1" as="geometry" />
        </mxCell>
        <mxCell id="IlorlPR1KQmD8dB0BpuV-29" value="Entry1" style="text;html=1;align=center;verticalAlign=middle;whiteSpace=wrap;rounded=0;" vertex="1" parent="1">
          <mxGeometry x="342" y="-219.5" width="60" height="30" as="geometry" />
        </mxCell>
        <mxCell id="IlorlPR1KQmD8dB0BpuV-30" value="Entry2" style="text;html=1;align=center;verticalAlign=middle;whiteSpace=wrap;rounded=0;" vertex="1" parent="1">
          <mxGeometry x="472" y="-220" width="60" height="30" as="geometry" />
        </mxCell>
        <mxCell id="IlorlPR1KQmD8dB0BpuV-31" value="Entry3" style="text;html=1;align=center;verticalAlign=middle;whiteSpace=wrap;rounded=0;" vertex="1" parent="1">
          <mxGeometry x="603" y="-220" width="60" height="30" as="geometry" />
        </mxCell>
        <mxCell id="IlorlPR1KQmD8dB0BpuV-32" value="XRayData" style="shape=cylinder3;whiteSpace=wrap;html=1;boundedLbl=1;backgroundOutline=1;size=15;" vertex="1" parent="1">
          <mxGeometry x="431" y="-1040" width="90" height="57.5" as="geometry" />
        </mxCell>
        <mxCell id="IlorlPR1KQmD8dB0BpuV-33" style="edgeStyle=orthogonalEdgeStyle;rounded=0;orthogonalLoop=1;jettySize=auto;html=1;exitX=0.5;exitY=1;exitDx=0;exitDy=0;entryX=0.5;entryY=0;entryDx=0;entryDy=0;" edge="1" parent="1" source="IlorlPR1KQmD8dB0BpuV-34" target="IlorlPR1KQmD8dB0BpuV-36">
          <mxGeometry relative="1" as="geometry" />
        </mxCell>
        <mxCell id="IlorlPR1KQmD8dB0BpuV-34" value="Mask" style="shape=process;whiteSpace=wrap;html=1;backgroundOutline=1;fillColor=#f5f5f5;fontColor=#333333;strokeColor=#666666;" vertex="1" parent="1">
          <mxGeometry x="250" y="-891" width="120" height="60" as="geometry" />
        </mxCell>
        <mxCell id="IlorlPR1KQmD8dB0BpuV-35" style="edgeStyle=orthogonalEdgeStyle;rounded=0;orthogonalLoop=1;jettySize=auto;html=1;exitX=0.5;exitY=1;exitDx=0;exitDy=0;" edge="1" parent="1" source="IlorlPR1KQmD8dB0BpuV-36" target="IlorlPR1KQmD8dB0BpuV-40">
          <mxGeometry relative="1" as="geometry" />
        </mxCell>
        <mxCell id="IlorlPR1KQmD8dB0BpuV-36" value="Flux, Time, Tranmission" style="shape=process;whiteSpace=wrap;html=1;backgroundOutline=1;fillColor=#f5f5f5;fontColor=#333333;strokeColor=#666666;" vertex="1" parent="1">
          <mxGeometry x="250" y="-821" width="120" height="60" as="geometry" />
        </mxCell>
        <mxCell id="IlorlPR1KQmD8dB0BpuV-37" style="edgeStyle=orthogonalEdgeStyle;rounded=0;orthogonalLoop=1;jettySize=auto;html=1;exitX=0.5;exitY=1;exitDx=0;exitDy=0;entryX=0.5;entryY=0;entryDx=0;entryDy=0;" edge="1" parent="1" source="IlorlPR1KQmD8dB0BpuV-38" target="IlorlPR1KQmD8dB0BpuV-34">
          <mxGeometry relative="1" as="geometry" />
        </mxCell>
        <mxCell id="IlorlPR1KQmD8dB0BpuV-38" value="Calculate Qx, Qy, Chi" style="shape=process;whiteSpace=wrap;html=1;backgroundOutline=1;fillColor=#f5f5f5;fontColor=#333333;strokeColor=#666666;" vertex="1" parent="1">
          <mxGeometry x="250" y="-960" width="120" height="60" as="geometry" />
        </mxCell>
        <mxCell id="IlorlPR1KQmD8dB0BpuV-39" style="edgeStyle=orthogonalEdgeStyle;rounded=0;orthogonalLoop=1;jettySize=auto;html=1;exitX=0.5;exitY=1;exitDx=0;exitDy=0;entryX=0;entryY=0.5;entryDx=0;entryDy=0;" edge="1" parent="1" source="IlorlPR1KQmD8dB0BpuV-40" target="IlorlPR1KQmD8dB0BpuV-5">
          <mxGeometry relative="1" as="geometry" />
        </mxCell>
        <mxCell id="IlorlPR1KQmD8dB0BpuV-40" value="DC" style="shape=process;whiteSpace=wrap;html=1;backgroundOutline=1;fillColor=#f5f5f5;fontColor=#333333;strokeColor=#666666;" vertex="1" parent="1">
          <mxGeometry x="250" y="-751" width="120" height="60" as="geometry" />
        </mxCell>
        <mxCell id="IlorlPR1KQmD8dB0BpuV-41" style="edgeStyle=orthogonalEdgeStyle;rounded=0;orthogonalLoop=1;jettySize=auto;html=1;exitX=0.5;exitY=1;exitDx=0;exitDy=0;exitPerimeter=0;entryX=0.5;entryY=0;entryDx=0;entryDy=0;" edge="1" parent="1" source="IlorlPR1KQmD8dB0BpuV-42" target="IlorlPR1KQmD8dB0BpuV-38">
          <mxGeometry relative="1" as="geometry" />
        </mxCell>
        <mxCell id="IlorlPR1KQmD8dB0BpuV-42" value="XRayData" style="shape=cylinder3;whiteSpace=wrap;html=1;boundedLbl=1;backgroundOutline=1;size=15;" vertex="1" parent="1">
          <mxGeometry x="265" y="-1040" width="90" height="57.5" as="geometry" />
        </mxCell>
        <mxCell id="IlorlPR1KQmD8dB0BpuV-43" value="Modified XRayData" style="shape=cylinder3;whiteSpace=wrap;html=1;boundedLbl=1;backgroundOutline=1;size=15;" vertex="1" parent="1">
          <mxGeometry x="431" y="-117.5" width="90" height="67.5" as="geometry" />
        </mxCell>
        <mxCell id="IlorlPR1KQmD8dB0BpuV-44" value="Tiled" style="shape=cylinder3;whiteSpace=wrap;html=1;boundedLbl=1;backgroundOutline=1;size=15;" vertex="1" parent="1">
          <mxGeometry x="580" y="-1036.25" width="90" height="50" as="geometry" />
        </mxCell>
        <mxCell id="IlorlPR1KQmD8dB0BpuV-45" style="edgeStyle=orthogonalEdgeStyle;rounded=0;orthogonalLoop=1;jettySize=auto;html=1;exitX=0;exitY=0.5;exitDx=0;exitDy=0;exitPerimeter=0;entryX=1;entryY=0.5;entryDx=0;entryDy=0;entryPerimeter=0;" edge="1" parent="1" source="IlorlPR1KQmD8dB0BpuV-44" target="IlorlPR1KQmD8dB0BpuV-32">
          <mxGeometry relative="1" as="geometry" />
        </mxCell>
        <mxCell id="IlorlPR1KQmD8dB0BpuV-46" value="Tiled" style="shape=cylinder3;whiteSpace=wrap;html=1;boundedLbl=1;backgroundOutline=1;size=15;" vertex="1" parent="1">
          <mxGeometry x="110" y="-1036.5" width="90" height="50" as="geometry" />
        </mxCell>
        <mxCell id="IlorlPR1KQmD8dB0BpuV-47" style="edgeStyle=orthogonalEdgeStyle;rounded=0;orthogonalLoop=1;jettySize=auto;html=1;exitX=1;exitY=0.5;exitDx=0;exitDy=0;exitPerimeter=0;entryX=0;entryY=0.5;entryDx=0;entryDy=0;entryPerimeter=0;" edge="1" parent="1" source="IlorlPR1KQmD8dB0BpuV-46" target="IlorlPR1KQmD8dB0BpuV-42">
          <mxGeometry relative="1" as="geometry" />
        </mxCell>
        <mxCell id="IlorlPR1KQmD8dB0BpuV-48" value="Tiled" style="shape=cylinder3;whiteSpace=wrap;html=1;boundedLbl=1;backgroundOutline=1;size=15;" vertex="1" parent="1">
          <mxGeometry x="595" y="-886" width="90" height="50" as="geometry" />
        </mxCell>
        <mxCell id="IlorlPR1KQmD8dB0BpuV-49" style="edgeStyle=orthogonalEdgeStyle;rounded=0;orthogonalLoop=1;jettySize=auto;html=1;exitX=0;exitY=0.5;exitDx=0;exitDy=0;exitPerimeter=0;entryX=1;entryY=0.5;entryDx=0;entryDy=0;entryPerimeter=0;" edge="1" parent="1" source="IlorlPR1KQmD8dB0BpuV-48">
          <mxGeometry relative="1" as="geometry">
            <mxPoint x="536" y="-860.75" as="targetPoint" />
          </mxGeometry>
        </mxCell>
        <mxCell id="IlorlPR1KQmD8dB0BpuV-50" style="edgeStyle=orthogonalEdgeStyle;rounded=0;orthogonalLoop=1;jettySize=auto;html=1;exitX=1;exitY=0.5;exitDx=0;exitDy=0;exitPerimeter=0;entryX=0;entryY=0.5;entryDx=0;entryDy=0;" edge="1" parent="1" source="IlorlPR1KQmD8dB0BpuV-51" target="IlorlPR1KQmD8dB0BpuV-34">
          <mxGeometry relative="1" as="geometry" />
        </mxCell>
        <mxCell id="IlorlPR1KQmD8dB0BpuV-51" value="Tiled" style="shape=cylinder3;whiteSpace=wrap;html=1;boundedLbl=1;backgroundOutline=1;size=15;" vertex="1" parent="1">
          <mxGeometry x="110" y="-886" width="90" height="50" as="geometry" />
        </mxCell>
        <mxCell id="IlorlPR1KQmD8dB0BpuV-52" style="edgeStyle=orthogonalEdgeStyle;rounded=0;orthogonalLoop=1;jettySize=auto;html=1;exitX=1;exitY=0.5;exitDx=0;exitDy=0;exitPerimeter=0;entryX=0;entryY=0.5;entryDx=0;entryDy=0;" edge="1" parent="1" source="IlorlPR1KQmD8dB0BpuV-53">
          <mxGeometry relative="1" as="geometry">
            <mxPoint x="286" y="-390" as="targetPoint" />
          </mxGeometry>
        </mxCell>
        <mxCell id="IlorlPR1KQmD8dB0BpuV-53" value="Tiled" style="shape=cylinder3;whiteSpace=wrap;html=1;boundedLbl=1;backgroundOutline=1;size=15;" vertex="1" parent="1">
          <mxGeometry x="146" y="-415" width="90" height="50" as="geometry" />
        </mxCell>
      </root>
    </mxGraphModel>
  </diagram>
</mxfile>
